<?xml version="1.0" encoding="utf-8"?>
<svg xmlns="http://www.w3.org/2000/svg" xmlns:xlink="http://www.w3.org/1999/xlink" style="margin: auto; background: none; display: block; shape-rendering: auto;" width="270px" height="270px" viewBox="0 0 100 100" preserveAspectRatio="xMidYMid">
<g transform="rotate(0 50 50)">
  <rect x="32.5" y="2.5" rx="17.5" ry="10.5" width="35" height="21" fill="#3c0f0f">
    <animate attributeName="opacity" values="1;0" keyTimes="0;1" dur="1.1494252873563218s" begin="-1.0775862068965518s" repeatCount="indefinite"></animate>
  </rect>
</g><g transform="rotate(22.5 50 50)">
  <rect x="32.5" y="2.5" rx="17.5" ry="10.5" width="35" height="21" fill="#f91a10">
    <animate attributeName="opacity" values="1;0" keyTimes="0;1" dur="1.1494252873563218s" begin="-1.0057471264367817s" repeatCount="indefinite"></animate>
  </rect>
</g><g transform="rotate(45 50 50)">
  <rect x="32.5" y="2.5" rx="17.5" ry="10.5" width="35" height="21" fill="#e46b43">
    <animate attributeName="opacity" values="1;0" keyTimes="0;1" dur="1.1494252873563218s" begin="-0.9339080459770115s" repeatCount="indefinite"></animate>
  </rect>
</g><g transform="rotate(67.5 50 50)">
  <rect x="32.5" y="2.5" rx="17.5" ry="10.5" width="35" height="21" fill="#edb195">
    <animate attributeName="opacity" values="1;0" keyTimes="0;1" dur="1.1494252873563218s" begin="-0.8620689655172414s" repeatCount="indefinite"></animate>
  </rect>
</g><g transform="rotate(90 50 50)">
  <rect x="32.5" y="2.5" rx="17.5" ry="10.5" width="35" height="21" fill="#2aa7c9">
    <animate attributeName="opacity" values="1;0" keyTimes="0;1" dur="1.1494252873563218s" begin="-0.7902298850574713s" repeatCount="indefinite"></animate>
  </rect>
</g><g transform="rotate(112.5 50 50)">
  <rect x="32.5" y="2.5" rx="17.5" ry="10.5" width="35" height="21" fill="#06628d">
    <animate attributeName="opacity" values="1;0" keyTimes="0;1" dur="1.1494252873563218s" begin="-0.7183908045977011s" repeatCount="indefinite"></animate>
  </rect>
</g><g transform="rotate(135 50 50)">
  <rect x="32.5" y="2.5" rx="17.5" ry="10.5" width="35" height="21" fill="#04284d">
    <animate attributeName="opacity" values="1;0" keyTimes="0;1" dur="1.1494252873563218s" begin="-0.646551724137931s" repeatCount="indefinite"></animate>
  </rect>
</g><g transform="rotate(157.5 50 50)">
  <rect x="32.5" y="2.5" rx="17.5" ry="10.5" width="35" height="21" fill="#3c0f0f">
    <animate attributeName="opacity" values="1;0" keyTimes="0;1" dur="1.1494252873563218s" begin="-0.5747126436781609s" repeatCount="indefinite"></animate>
  </rect>
</g><g transform="rotate(180 50 50)">
  <rect x="32.5" y="2.5" rx="17.5" ry="10.5" width="35" height="21" fill="#f91a10">
    <animate attributeName="opacity" values="1;0" keyTimes="0;1" dur="1.1494252873563218s" begin="-0.5028735632183908s" repeatCount="indefinite"></animate>
  </rect>
</g><g transform="rotate(202.5 50 50)">
  <rect x="32.5" y="2.5" rx="17.5" ry="10.5" width="35" height="21" fill="#e46b43">
    <animate attributeName="opacity" values="1;0" keyTimes="0;1" dur="1.1494252873563218s" begin="-0.4310344827586207s" repeatCount="indefinite"></animate>
  </rect>
</g><g transform="rotate(225 50 50)">
  <rect x="32.5" y="2.5" rx="17.5" ry="10.5" width="35" height="21" fill="#edb195">
    <animate attributeName="opacity" values="1;0" keyTimes="0;1" dur="1.1494252873563218s" begin="-0.35919540229885055s" repeatCount="indefinite"></animate>
  </rect>
</g><g transform="rotate(247.5 50 50)">
  <rect x="32.5" y="2.5" rx="17.5" ry="10.5" width="35" height="21" fill="#2aa7c9">
    <animate attributeName="opacity" values="1;0" keyTimes="0;1" dur="1.1494252873563218s" begin="-0.28735632183908044s" repeatCount="indefinite"></animate>
  </rect>
</g><g transform="rotate(270 50 50)">
  <rect x="32.5" y="2.5" rx="17.5" ry="10.5" width="35" height="21" fill="#06628d">
    <animate attributeName="opacity" values="1;0" keyTimes="0;1" dur="1.1494252873563218s" begin="-0.21551724137931036s" repeatCount="indefinite"></animate>
  </rect>
</g><g transform="rotate(292.5 50 50)">
  <rect x="32.5" y="2.5" rx="17.5" ry="10.5" width="35" height="21" fill="#04284d">
    <animate attributeName="opacity" values="1;0" keyTimes="0;1" dur="1.1494252873563218s" begin="-0.14367816091954022s" repeatCount="indefinite"></animate>
  </rect>
</g><g transform="rotate(315 50 50)">
  <rect x="32.5" y="2.5" rx="17.5" ry="10.5" width="35" height="21" fill="#3c0f0f">
    <animate attributeName="opacity" values="1;0" keyTimes="0;1" dur="1.1494252873563218s" begin="-0.07183908045977011s" repeatCount="indefinite"></animate>
  </rect>
</g><g transform="rotate(337.5 50 50)">
  <rect x="32.5" y="2.5" rx="17.5" ry="10.5" width="35" height="21" fill="#f91a10">
    <animate attributeName="opacity" values="1;0" keyTimes="0;1" dur="1.1494252873563218s" begin="0s" repeatCount="indefinite"></animate>
  </rect>
</g>
<!-- [ldio] generated by https://loading.io/ --></svg>